<svg width="19" height="19" viewBox="0 0 19 19" fill="none" xmlns="http://www.w3.org/2000/svg">
<path d="M11.9706 17.9368C11.9706 17.564 11.6684 17.2618 11.2956 17.2618H2.32353C2.04739 17.2618 1.82353 17.038 1.82353 16.7618V2.46182C1.82353 2.18567 2.04739 1.96182 2.32353 1.96182H11.2956C11.6684 1.96182 11.9706 1.65961 11.9706 1.28682C11.9706 0.914024 11.6684 0.611816 11.2956 0.611816H2.5C1.39543 0.611816 0.5 1.50725 0.5 2.61182V16.6118C0.5 17.7164 1.39543 18.6118 2.5 18.6118H11.2956C11.6684 18.6118 11.9706 18.3096 11.9706 17.9368ZM10.3947 9.25182C10.0468 9.25182 9.76471 9.53388 9.76471 9.88182C9.76471 10.2298 10.0468 10.5118 10.3947 10.5118H15.9412L13.7698 12.7266C13.5056 12.9961 13.5056 13.4275 13.7698 13.697C14.0415 13.9742 14.4879 13.9742 14.7596 13.697L17.8137 10.5819C18.1949 10.193 18.1949 9.57061 17.8137 9.18174L14.7596 6.06662C14.4879 5.78945 14.0415 5.78945 13.7698 6.06662C13.5056 6.33613 13.5056 6.76751 13.7698 7.03702L15.9412 9.25182H10.3947Z" fill="#97A1AF"/>
</svg>
