<svg width="81" height="81" viewBox="0 0 81 81" fill="none" xmlns="http://www.w3.org/2000/svg">
<path d="M68.5 40.041C68.5 55.505 55.964 68.041 40.5 68.041C25.036 68.041 12.5 55.505 12.5 40.041C12.5 24.577 25.036 12.041 40.5 12.041C55.964 12.041 68.5 24.577 68.5 40.041Z" fill="url(#paint0_linear_479_7624)"/>
<path d="M52.6381 31.4309C51.9904 30.9145 51.0466 31.0209 50.5301 31.6686L37.4464 48.0774C37.2604 48.3107 36.9128 48.3302 36.7019 48.1193L30.3649 41.7823C29.7791 41.1965 28.8294 41.1965 28.2436 41.7823C27.6578 42.3681 27.6578 43.3178 28.2436 43.9036L34.5806 50.2406C36.0572 51.7172 38.4901 51.5805 39.792 49.9477L52.8757 33.5389C53.3922 32.8912 53.2858 31.9474 52.6381 31.4309Z" fill="white"/>
<defs>
<linearGradient id="paint0_linear_479_7624" x1="40.5" y1="68.041" x2="40.5" y2="12.041" gradientUnits="userSpaceOnUse">
<stop stop-color="#7DBA6E"/>
<stop offset="0.9531" stop-color="#C6E99A"/>
</linearGradient>
</defs>
</svg>
